# xmcd
#
# Track frame offsets: 
#        150
#        18302
#        41622
#        61120
#        87797
#        96920
#        118627
#        131757
#        139875
#        157842
#        180507
#        193495
#
# Disc length: 3154 seconds
#
# Revision: 0
# Processed by: cddbd v1.5.2PL0 Copyright (c) Steve Scherf et al.
# Submitted via: ExactAudioCopy v0.95b4
#
DISCID=9e0c500c
DTITLE=I See Hawks In L.A. - I See Hawks In L.A.
DYEAR=2001
DGENRE=Country/Bluegrass
TTITLE0=Nicotine and Vitamin C
TTITLE1=Turn That Airplane Around
TTITLE2=The Beautiful Narcotic Place I Reside
TTITLE3=I See Hawks In L.A.
TTITLE4=Papa Stopped The Wagon
TTITLE5=The Mystery Of Life
TTITLE6=Hecker Pass
TTITLE7=A Dog Can Break Your Heart Too
TTITLE8=Duty To Our Pod
TTITLE9=To The Snow
TTITLE10=Don't Bury Me
TTITLE11=Baby
EXTD=
EXTT0=
EXTT1=
EXTT2=
EXTT3=
EXTT4=
EXTT5=
EXTT6=
EXTT7=
EXTT8=
EXTT9=
EXTT10=
EXTT11=
PLAYORDER=
